<svg width="11" height="11" viewBox="0 0 11 11" fill="none" xmlns="http://www.w3.org/2000/svg">
<path id="Path" d="M10.048 8.47787C10.0692 8.64032 10.0197 8.78156 9.89976 8.9016L8.49178 10.2999C8.42826 10.3705 8.34536 10.4306 8.24302 10.4799C8.14069 10.5294 8.04013 10.5612 7.94136 10.5753C7.93431 10.5753 7.91308 10.5771 7.87778 10.5806C7.84254 10.5841 7.79667 10.5859 7.74021 10.5859C7.60608 10.5859 7.38904 10.563 7.0891 10.5171C6.78915 10.4711 6.42218 10.3581 5.98817 10.1781C5.55407 9.998 5.06182 9.72784 4.51135 9.3677C3.96088 9.00759 3.37509 8.5132 2.75402 7.88465C2.26 7.39737 1.85066 6.93127 1.52601 6.48637C1.20137 6.04144 0.940237 5.63007 0.742626 5.25224C0.544997 4.87442 0.396789 4.53191 0.297984 4.2247C0.199178 3.9175 0.132132 3.65267 0.096844 3.43021C0.0615563 3.20776 0.0474412 3.03297 0.0544988 2.90585C0.0615563 2.77873 0.0650851 2.70811 0.0650851 2.69398C0.0792001 2.59511 0.110959 2.49448 0.160362 2.39208C0.209765 2.28968 0.269754 2.2067 0.340329 2.14314L1.74831 0.734242C1.84711 0.635372 1.96003 0.585938 2.08707 0.585938C2.17882 0.585938 2.25998 0.612421 2.33055 0.665387C2.40113 0.718353 2.46112 0.783677 2.51052 0.861361L3.64326 3.01178C3.70677 3.12477 3.72442 3.24836 3.69619 3.38254C3.66796 3.51672 3.60797 3.62972 3.51622 3.72153L2.99749 4.24059C2.98338 4.25472 2.97102 4.27767 2.96044 4.30945C2.94985 4.34123 2.94456 4.36771 2.94456 4.3889C2.97279 4.5372 3.03631 4.70669 3.13511 4.89737C3.2198 5.06686 3.35037 5.27343 3.52681 5.51707C3.70324 5.76072 3.95379 6.04142 4.27843 6.35922C4.59602 6.68411 4.87832 6.93654 5.12534 7.11666C5.3723 7.29668 5.5788 7.42915 5.74465 7.51389C5.91051 7.59864 6.03754 7.64984 6.12574 7.66744L6.25804 7.69394C6.27215 7.69394 6.29514 7.68863 6.32687 7.67805C6.35862 7.66744 6.38156 7.6551 6.39569 7.64096L6.9991 7.02655C7.1262 6.91358 7.27434 6.85708 7.44374 6.85708C7.56375 6.85708 7.65898 6.87825 7.72955 6.92064H7.74012L9.78326 8.12826C9.93152 8.22014 10.0197 8.33663 10.048 8.47787Z" fill="white"/>
</svg>
