<svg width="1600" height="297" viewBox="0 0 1600 297" fill="none" xmlns="http://www.w3.org/2000/svg">
<path d="M-0.0511218 294.941C-0.0511259 248.11 -0.0511299 201.378 -0.051134 154.547C1.44801 154.547 2.34755 155.547 3.34694 156.448C15.4401 166.755 28.6327 175.661 41.9252 184.267C58.5159 195.074 75.5064 205.281 93.1964 214.287C104.09 219.791 114.984 225.194 126.078 230.198C134.773 234.2 143.668 237.503 152.463 241.205C162.957 245.508 173.551 249.411 184.145 253.113C197.838 257.916 211.83 262.019 225.722 266.122C243.012 271.125 260.502 275.428 278.192 278.931C303.078 283.834 328.164 287.837 353.55 290.138C372.839 291.939 392.128 293.24 411.417 294.141C433.605 295.242 455.793 294.541 477.98 294.041C490.373 293.741 502.766 292.34 515.159 291.939C525.053 290.939 534.848 289.738 544.742 289.037C557.135 288.037 569.328 286.436 581.522 284.234C594.214 282.033 606.807 279.631 619.4 276.829C630.394 274.427 641.188 271.325 651.982 268.523C662.476 265.722 673.07 263.02 683.464 259.918C693.559 256.916 703.853 254.214 713.747 250.711C723.742 247.209 733.736 243.607 743.73 240.605C760.321 235.701 776.112 228.997 792.403 223.493C810.992 217.289 829.082 209.584 847.272 202.079C863.663 195.374 880.154 188.97 896.145 181.565C908.338 175.861 920.531 170.457 932.824 164.954C948.715 157.949 964.206 150.244 979.797 142.638C995.489 134.933 1010.88 126.528 1026.47 118.522C1049.16 106.914 1071.95 95.3065 1094.73 83.6986C1111.02 75.393 1127.41 67.1875 1144.31 60.1828C1155.4 55.5797 1166.49 50.9765 1177.79 46.8738C1194.18 40.8697 1210.67 34.8657 1227.56 30.0624C1249.15 23.8582 1271.03 19.055 1293.12 14.7521C1318.11 9.84876 1343.29 6.74666 1368.58 4.24497C1384.97 2.64389 1401.46 1.64321 1417.95 1.24294C1440.64 0.642533 1463.43 1.14287 1486.21 2.14354C1496.11 2.64388 1505.9 3.34435 1515.8 4.34503C1526.29 5.3457 1536.78 7.04685 1547.28 8.04752C1557.67 9.0482 1567.87 10.7493 1578.16 12.3504C1584.36 13.3511 1598.99 15.7149 1599.99 16.0151C1599.99 108.077 1599.92 200.277 1600.02 292.339L1600.02 296.943L1595.25 296.943C1064.66 299.451 535.132 298.746 4.86416 296.907L-0.151097 296.907L-0.151097 294.941L-0.0511218 294.941Z" fill="#E8F3FD"/>
</svg>
